<svg width="281" height="41" viewBox="0 0 281 41" fill="none" xmlns="http://www.w3.org/2000/svg">
<rect x="12" y="11.4558" width="18" height="18" fill="#FF6B00"/>
<path d="M60.5852 32.4558H65.5057V22.8422H74.9716V18.7854H65.5057V13.2399H75.9943V9.18308H60.5852V32.4558ZM78.9318 32.4558H83.7727V22.5808C83.7727 20.4331 85.3409 18.9558 87.4773 18.9558C88.1477 18.9558 89.0682 19.0694 89.5227 19.2172V14.9217C89.0909 14.8194 88.4886 14.7513 88 14.7513C86.0455 14.7513 84.4432 15.8876 83.8068 18.0467H83.625V15.0013H78.9318V32.4558ZM96.5028 32.7854C99.0824 32.7854 100.753 31.6604 101.605 30.0354H101.741V32.4558H106.332V20.6831C106.332 16.524 102.81 14.774 98.9233 14.774C94.7415 14.774 91.9915 16.774 91.321 19.9558L95.7983 20.3194C96.1278 19.1604 97.1619 18.3081 98.9006 18.3081C100.548 18.3081 101.491 19.1376 101.491 20.5694V20.6376C101.491 21.7626 100.298 21.9104 97.2642 22.2058C93.8097 22.524 90.7074 23.6831 90.7074 27.5808C90.7074 31.0354 93.1733 32.7854 96.5028 32.7854ZM97.8892 29.4444C96.4006 29.4444 95.3324 28.7513 95.3324 27.4217C95.3324 26.0581 96.4574 25.3876 98.1619 25.149C99.2188 25.0013 100.946 24.7513 101.526 24.3649V26.2172C101.526 28.0467 100.014 29.4444 97.8892 29.4444ZM110.088 32.4558H114.929V21.9785C114.929 20.0467 116.156 18.7626 117.77 18.7626C119.361 18.7626 120.429 19.8535 120.429 21.5694V32.4558H125.122V21.7967C125.122 19.9899 126.156 18.7626 127.918 18.7626C129.463 18.7626 130.622 19.7285 130.622 21.6717V32.4558H135.452V20.7172C135.452 16.9331 133.202 14.774 129.952 14.774C127.395 14.774 125.406 16.0808 124.69 18.0808H124.509C123.952 16.0581 122.168 14.774 119.77 14.774C117.418 14.774 115.634 16.024 114.906 18.0808H114.702V15.0013H110.088V32.4558ZM147.23 32.7967C151.548 32.7967 154.457 30.6944 155.139 27.4558L150.662 27.1604C150.173 28.4899 148.923 29.1831 147.31 29.1831C144.889 29.1831 143.355 27.5808 143.355 24.9785V24.9672H155.241V23.6376C155.241 17.7058 151.651 14.774 147.037 14.774C141.901 14.774 138.571 18.4217 138.571 23.8081C138.571 29.3422 141.855 32.7967 147.23 32.7967ZM143.355 21.9672C143.457 19.9785 144.969 18.3876 147.116 18.3876C149.219 18.3876 150.673 19.8876 150.685 21.9672H143.355ZM161.719 32.4558H166.832L169.832 21.4785H170.048L173.048 32.4558H178.173L182.912 15.0013H178.026L175.366 26.6604H175.219L172.355 15.0013H167.548L164.73 26.7285H164.571L161.866 15.0013H156.969L161.719 32.4558ZM192.943 32.7967C198.239 32.7967 201.534 29.1717 201.534 23.7967C201.534 18.3876 198.239 14.774 192.943 14.774C187.648 14.774 184.352 18.3876 184.352 23.7967C184.352 29.1717 187.648 32.7967 192.943 32.7967ZM192.966 29.0467C190.523 29.0467 189.273 26.8081 189.273 23.7626C189.273 20.7172 190.523 18.4672 192.966 18.4672C195.364 18.4672 196.614 20.7172 196.614 23.7626C196.614 26.8081 195.364 29.0467 192.966 29.0467ZM204.682 32.4558H209.523V22.5808C209.523 20.4331 211.091 18.9558 213.227 18.9558C213.898 18.9558 214.818 19.0694 215.273 19.2172V14.9217C214.841 14.8194 214.239 14.7513 213.75 14.7513C211.795 14.7513 210.193 15.8876 209.557 18.0467H209.375V15.0013H204.682V32.4558ZM217.776 32.4558H222.616V26.9104L223.923 25.4217L228.685 32.4558H234.355L227.548 22.5581L234.026 15.0013H228.469L222.878 21.6263H222.616V9.18308H217.776V32.4558ZM250.923 19.9785C250.491 16.7626 247.901 14.774 243.491 14.774C239.026 14.774 236.082 16.8422 236.094 20.2058C236.082 22.8194 237.73 24.5126 241.139 25.1944L244.162 25.7967C245.685 26.1035 246.378 26.6604 246.401 27.5354C246.378 28.5694 245.253 29.3081 243.56 29.3081C241.832 29.3081 240.685 28.5694 240.389 27.149L235.628 27.399C236.082 30.7399 238.923 32.7967 243.548 32.7967C248.071 32.7967 251.31 30.4899 251.321 27.0467C251.31 24.524 249.662 23.0126 246.276 22.3194L243.116 21.6831C241.491 21.3308 240.889 20.774 240.901 19.9331C240.889 18.8876 242.071 18.2058 243.571 18.2058C245.253 18.2058 246.253 19.1263 246.491 20.2513L250.923 19.9785Z" fill="white"/>
</svg>
