<svg width="227" height="42" viewBox="0 0 227 42" fill="none" xmlns="http://www.w3.org/2000/svg">
<rect x="12.7725" y="20.7279" width="18" height="18" transform="rotate(-45 12.7725 20.7279)" fill="#FF6B00"/>
<path d="M55.2845 5.5839V24.4959H65.8125V27.7279H51.5085V5.5839H55.2845ZM67.5748 16.9439C67.6388 16.0052 67.8734 15.1946 68.2788 14.5119C68.6841 13.8292 69.1854 13.2746 69.7828 12.8479C70.4014 12.3999 71.0841 12.0692 71.8308 11.8559C72.5774 11.6426 73.3241 11.5359 74.0708 11.5359C74.9028 11.5359 75.7028 11.6319 76.4708 11.8239C77.2388 11.9946 77.9214 12.2826 78.5188 12.6879C79.1161 13.0932 79.5961 13.6052 79.9588 14.2239C80.3214 14.8426 80.5028 15.5999 80.5028 16.4959V24.2719C80.5028 24.4426 80.5348 24.6026 80.5988 24.7519C80.6628 24.8799 80.7374 24.9439 80.8228 24.9439C80.8654 24.9439 81.0148 24.9012 81.2708 24.8159C81.5268 24.7306 81.8681 24.6346 82.2948 24.5279V27.5679C81.7828 27.7386 81.3668 27.8559 81.0468 27.9199C80.7268 27.9839 80.3854 28.0159 80.0228 28.0159C79.4041 28.0159 78.8601 27.8772 78.3908 27.5999C77.9214 27.3012 77.5694 26.8106 77.3348 26.1279C76.5241 26.8532 75.6921 27.3546 74.8388 27.6319C74.0068 27.8879 73.1641 28.0159 72.3108 28.0159C71.6068 28.0159 70.9348 27.9092 70.2948 27.6959C69.6761 27.4612 69.1321 27.1412 68.6628 26.7359C68.2148 26.3092 67.8521 25.8079 67.5748 25.2319C67.3188 24.6559 67.1908 24.0052 67.1908 23.2799C67.1908 22.4692 67.3828 21.7866 67.7668 21.2319C68.1508 20.6772 68.6414 20.2186 69.2388 19.8559C69.8574 19.4932 70.5401 19.1946 71.2868 18.9599C72.0334 18.7039 72.7694 18.4799 73.4948 18.2879C73.9428 18.1599 74.3588 18.0426 74.7428 17.9359C75.1481 17.8079 75.5001 17.6799 75.7988 17.5519C76.1188 17.4026 76.3641 17.2426 76.5348 17.0719C76.7268 16.9012 76.8228 16.7092 76.8228 16.4959C76.8228 15.8346 76.5774 15.3652 76.0868 15.0879C75.5961 14.8106 74.9028 14.6719 74.0068 14.6719C73.3241 14.6719 72.7268 14.8532 72.2148 15.2159C71.7241 15.5572 71.4148 16.1332 71.2868 16.9439H67.5748ZM76.8228 20.0799C76.4388 20.2506 76.0228 20.4106 75.5748 20.5599C75.1481 20.7092 74.7001 20.8479 74.2308 20.9759L73.9748 21.0399C73.5694 21.1679 73.1748 21.2959 72.7908 21.4239C72.4281 21.5519 72.0974 21.7012 71.7988 21.8719C71.5214 22.0212 71.2868 22.2026 71.0948 22.4159C70.9241 22.6292 70.8388 22.8746 70.8388 23.1519C70.8388 23.7919 71.0201 24.2506 71.3828 24.5279C71.7668 24.8052 72.1828 24.9439 72.6308 24.9439C73.3561 24.9439 74.0921 24.6986 74.8388 24.2079C75.5854 23.7172 76.2468 22.9919 76.8228 22.0319V20.0799ZM84.1938 11.8239H87.8738V13.0079C88.5564 12.5172 89.2711 12.1546 90.0178 11.9199C90.7858 11.6639 91.5538 11.5359 92.3218 11.5359C93.9644 11.5359 95.2338 11.9946 96.1298 12.9119C97.0258 13.8079 97.4738 15.0239 97.4738 16.5599V27.7279H93.8258V16.8159C93.8258 16.0266 93.6551 15.4719 93.3138 15.1519C92.9724 14.8319 92.5031 14.6719 91.9058 14.6719C91.3511 14.6719 90.8284 14.7786 90.3378 14.9919C89.8471 15.1839 89.4204 15.4506 89.0578 15.7919C88.6951 16.1119 88.4071 16.4959 88.1938 16.9439C87.9804 17.3706 87.8738 17.8186 87.8738 18.2879V27.7279H84.1938V11.8239ZM114.336 27.5039C114.336 28.6132 114.144 29.5839 113.76 30.4159C113.376 31.2692 112.853 31.9839 112.192 32.5599C111.552 33.1359 110.816 33.5626 109.984 33.8399C109.152 34.1386 108.288 34.2879 107.392 34.2879C105.834 34.2879 104.448 33.8399 103.232 32.9439C102.037 32.0479 101.098 30.6079 100.416 28.6239H104.128C104.533 29.5199 104.992 30.1599 105.504 30.5439C106.037 30.9492 106.666 31.1519 107.392 31.1519C107.84 31.1519 108.256 31.0559 108.64 30.8639C109.045 30.6932 109.397 30.4479 109.696 30.1279C109.994 29.8292 110.229 29.4559 110.4 29.0079C110.592 28.5812 110.688 28.1119 110.688 27.5999V26.8639C109.685 27.6532 108.565 28.0479 107.328 28.0479C106.218 28.0479 105.216 27.8346 104.32 27.4079C103.424 26.9599 102.666 26.3626 102.048 25.6159C101.429 24.8692 100.949 23.9946 100.608 22.9919C100.266 21.9892 100.096 20.9119 100.096 19.7599C100.096 18.6079 100.256 17.5412 100.576 16.5599C100.917 15.5572 101.397 14.6826 102.016 13.9359C102.634 13.1892 103.37 12.6026 104.224 12.1759C105.077 11.7492 106.037 11.5359 107.104 11.5359C107.658 11.5359 108.245 11.6212 108.864 11.7919C109.482 11.9626 110.09 12.2719 110.688 12.7199V11.8239H114.336V27.5039ZM110.688 19.5679C110.666 18.8852 110.581 18.2452 110.432 17.6479C110.282 17.0506 110.069 16.5386 109.792 16.1119C109.514 15.6639 109.173 15.3119 108.768 15.0559C108.384 14.7999 107.936 14.6719 107.424 14.6719C106.89 14.6719 106.4 14.8106 105.952 15.0879C105.504 15.3439 105.109 15.7066 104.768 16.1759C104.448 16.6239 104.192 17.1572 104 17.7759C103.829 18.3946 103.744 19.0559 103.744 19.7599C103.744 20.4639 103.829 21.1359 104 21.7759C104.192 22.3946 104.448 22.9386 104.768 23.4079C105.109 23.8772 105.504 24.2506 105.952 24.5279C106.4 24.8052 106.89 24.9439 107.424 24.9439C107.936 24.9439 108.394 24.8159 108.8 24.5599C109.205 24.2826 109.546 23.9199 109.824 23.4719C110.101 23.0026 110.314 22.4586 110.464 21.8399C110.613 21.1999 110.688 20.5279 110.688 19.8239V19.5679ZM130.501 27.4719H126.853V26.2879C126.192 26.7786 125.477 27.1412 124.709 27.3759C123.941 27.6106 123.163 27.7279 122.373 27.7279C120.773 27.7279 119.515 27.2799 118.597 26.3839C117.68 25.4879 117.221 24.2719 117.221 22.7359V11.5359H120.901V22.4479C120.901 23.2372 121.072 23.8026 121.413 24.1439C121.755 24.4639 122.224 24.6239 122.821 24.6239C123.376 24.6239 123.899 24.5279 124.389 24.3359C124.88 24.1226 125.307 23.8559 125.669 23.5359C126.032 23.1946 126.32 22.8106 126.533 22.3839C126.747 21.9359 126.853 21.4772 126.853 21.0079V11.5359H130.501V27.4719ZM133.575 16.9439C133.639 16.0052 133.873 15.1946 134.279 14.5119C134.684 13.8292 135.185 13.2746 135.783 12.8479C136.401 12.3999 137.084 12.0692 137.831 11.8559C138.577 11.6426 139.324 11.5359 140.071 11.5359C140.903 11.5359 141.703 11.6319 142.471 11.8239C143.239 11.9946 143.921 12.2826 144.519 12.6879C145.116 13.0932 145.596 13.6052 145.959 14.2239C146.321 14.8426 146.503 15.5999 146.503 16.4959V24.2719C146.503 24.4426 146.535 24.6026 146.599 24.7519C146.663 24.8799 146.737 24.9439 146.823 24.9439C146.865 24.9439 147.015 24.9012 147.271 24.8159C147.527 24.7306 147.868 24.6346 148.295 24.5279V27.5679C147.783 27.7386 147.367 27.8559 147.047 27.9199C146.727 27.9839 146.385 28.0159 146.023 28.0159C145.404 28.0159 144.86 27.8772 144.391 27.5999C143.921 27.3012 143.569 26.8106 143.335 26.1279C142.524 26.8532 141.692 27.3546 140.839 27.6319C140.007 27.8879 139.164 28.0159 138.311 28.0159C137.607 28.0159 136.935 27.9092 136.295 27.6959C135.676 27.4612 135.132 27.1412 134.663 26.7359C134.215 26.3092 133.852 25.8079 133.575 25.2319C133.319 24.6559 133.191 24.0052 133.191 23.2799C133.191 22.4692 133.383 21.7866 133.767 21.2319C134.151 20.6772 134.641 20.2186 135.239 19.8559C135.857 19.4932 136.54 19.1946 137.287 18.9599C138.033 18.7039 138.769 18.4799 139.495 18.2879C139.943 18.1599 140.359 18.0426 140.743 17.9359C141.148 17.8079 141.5 17.6799 141.799 17.5519C142.119 17.4026 142.364 17.2426 142.535 17.0719C142.727 16.9012 142.823 16.7092 142.823 16.4959C142.823 15.8346 142.577 15.3652 142.087 15.0879C141.596 14.8106 140.903 14.6719 140.007 14.6719C139.324 14.6719 138.727 14.8532 138.215 15.2159C137.724 15.5572 137.415 16.1332 137.287 16.9439H133.575ZM142.823 20.0799C142.439 20.2506 142.023 20.4106 141.575 20.5599C141.148 20.7092 140.7 20.8479 140.231 20.9759L139.975 21.0399C139.569 21.1679 139.175 21.2959 138.791 21.4239C138.428 21.5519 138.097 21.7012 137.799 21.8719C137.521 22.0212 137.287 22.2026 137.095 22.4159C136.924 22.6292 136.839 22.8746 136.839 23.1519C136.839 23.7919 137.02 24.2506 137.383 24.5279C137.767 24.8052 138.183 24.9439 138.631 24.9439C139.356 24.9439 140.092 24.6986 140.839 24.2079C141.585 23.7172 142.247 22.9919 142.823 22.0319V20.0799ZM164.242 27.5039C164.242 28.6132 164.05 29.5839 163.666 30.4159C163.282 31.2692 162.759 31.9839 162.098 32.5599C161.458 33.1359 160.722 33.5626 159.89 33.8399C159.058 34.1386 158.194 34.2879 157.298 34.2879C155.74 34.2879 154.354 33.8399 153.138 32.9439C151.943 32.0479 151.004 30.6079 150.322 28.6239H154.034C154.439 29.5199 154.898 30.1599 155.41 30.5439C155.943 30.9492 156.572 31.1519 157.298 31.1519C157.746 31.1519 158.162 31.0559 158.546 30.8639C158.951 30.6932 159.303 30.4479 159.602 30.1279C159.9 29.8292 160.135 29.4559 160.306 29.0079C160.498 28.5812 160.594 28.1119 160.594 27.5999V26.8639C159.591 27.6532 158.471 28.0479 157.234 28.0479C156.124 28.0479 155.122 27.8346 154.226 27.4079C153.33 26.9599 152.572 26.3626 151.954 25.6159C151.335 24.8692 150.855 23.9946 150.514 22.9919C150.172 21.9892 150.002 20.9119 150.002 19.7599C150.002 18.6079 150.162 17.5412 150.482 16.5599C150.823 15.5572 151.303 14.6826 151.922 13.9359C152.54 13.1892 153.276 12.6026 154.13 12.1759C154.983 11.7492 155.943 11.5359 157.01 11.5359C157.564 11.5359 158.151 11.6212 158.77 11.7919C159.388 11.9626 159.996 12.2719 160.594 12.7199V11.8239H164.242V27.5039ZM160.594 19.5679C160.572 18.8852 160.487 18.2452 160.338 17.6479C160.188 17.0506 159.975 16.5386 159.698 16.1119C159.42 15.6639 159.079 15.3119 158.674 15.0559C158.29 14.7999 157.842 14.6719 157.33 14.6719C156.796 14.6719 156.306 14.8106 155.858 15.0879C155.41 15.3439 155.015 15.7066 154.674 16.1759C154.354 16.6239 154.098 17.1572 153.906 17.7759C153.735 18.3946 153.65 19.0559 153.65 19.7599C153.65 20.4639 153.735 21.1359 153.906 21.7759C154.098 22.3946 154.354 22.9386 154.674 23.4079C155.015 23.8772 155.41 24.2506 155.858 24.5279C156.306 24.8052 156.796 24.9439 157.33 24.9439C157.842 24.9439 158.3 24.8159 158.706 24.5599C159.111 24.2826 159.452 23.9199 159.73 23.4719C160.007 23.0026 160.22 22.4586 160.37 21.8399C160.519 21.1999 160.594 20.5279 160.594 19.8239V19.5679ZM170.904 20.7519C170.989 21.2852 171.138 21.8079 171.352 22.3199C171.586 22.8106 171.864 23.2586 172.184 23.6639C172.504 24.0479 172.866 24.3572 173.272 24.5919C173.698 24.8266 174.146 24.9439 174.616 24.9439C176.344 24.9439 177.549 23.9519 178.232 21.9679H181.656C181.464 22.9279 181.133 23.7812 180.664 24.5279C180.216 25.2746 179.672 25.9146 179.032 26.4479C178.413 26.9599 177.72 27.3546 176.952 27.6319C176.205 27.8879 175.426 28.0159 174.616 28.0159C173.464 28.0159 172.429 27.7919 171.512 27.3439C170.594 26.8746 169.805 26.2559 169.144 25.4879C168.482 24.7199 167.97 23.8239 167.608 22.7999C167.266 21.7759 167.096 20.6879 167.096 19.5359C167.096 18.4692 167.266 17.4559 167.608 16.4959C167.97 15.5359 168.472 14.6932 169.112 13.9679C169.773 13.2212 170.562 12.6346 171.48 12.2079C172.397 11.7599 173.432 11.5359 174.584 11.5359C175.693 11.5359 176.696 11.7386 177.592 12.1439C178.488 12.5279 179.245 13.0719 179.864 13.7759C180.504 14.4586 180.994 15.2799 181.336 16.2399C181.677 17.1786 181.848 18.2026 181.848 19.3119V20.7519H170.904ZM178.04 17.9039C177.912 16.9439 177.528 16.1652 176.888 15.5679C176.269 14.9706 175.448 14.6719 174.424 14.6719C173.976 14.6719 173.549 14.7572 173.144 14.9279C172.76 15.0986 172.418 15.3332 172.12 15.6319C171.821 15.9306 171.565 16.2719 171.352 16.6559C171.16 17.0399 171.021 17.4559 170.936 17.9039H178.04Z" fill="white"/>
</svg>
