<svg width="169" height="41" viewBox="0 0 169 41" fill="none" xmlns="http://www.w3.org/2000/svg">
<rect x="12" y="11.4558" width="18" height="18" rx="9" fill="#FF6B00"/>
<path d="M56.6477 15.8763H61.3636C61.2955 11.7285 57.8864 8.8649 52.7045 8.8649C47.6023 8.8649 43.8636 11.6831 43.8864 15.9104C43.875 19.3422 46.2955 21.3081 50.2273 22.2513L52.7614 22.8876C55.2955 23.5013 56.7045 24.2285 56.7159 25.7967C56.7045 27.5013 55.0909 28.6604 52.5909 28.6604C50.0341 28.6604 48.1932 27.4785 48.0341 25.149H43.2727C43.3977 30.1831 47 32.7854 52.6477 32.7854C58.3295 32.7854 61.6705 30.0694 61.6818 25.8081C61.6705 21.9331 58.75 19.8763 54.7045 18.9672L52.6136 18.4672C50.5909 18.0013 48.8977 17.2513 48.9318 15.5808C48.9318 14.0808 50.2614 12.9785 52.6705 12.9785C55.0227 12.9785 56.4659 14.0467 56.6477 15.8763ZM64.9006 32.4558H69.7415V26.9104L71.0483 25.4217L75.8097 32.4558H81.4801L74.6733 22.5581L81.1506 15.0013H75.5938L70.0028 21.6263H69.7415V9.18308H64.9006V32.4558ZM83.5256 32.4558H88.3665V15.0013H83.5256V32.4558ZM85.9574 12.7513C87.4006 12.7513 88.5824 11.649 88.5824 10.2967C88.5824 8.95581 87.4006 7.85354 85.9574 7.85354C84.5256 7.85354 83.3438 8.95581 83.3438 10.2967C83.3438 11.649 84.5256 12.7513 85.9574 12.7513ZM97.0852 9.18308H92.2443V32.4558H97.0852V9.18308ZM105.804 9.18308H100.963V32.4558H105.804V9.18308ZM124.205 19.9785C123.773 16.7626 121.182 14.774 116.773 14.774C112.307 14.774 109.364 16.8422 109.375 20.2058C109.364 22.8194 111.011 24.5126 114.42 25.1944L117.443 25.7967C118.966 26.1035 119.659 26.6604 119.682 27.5354C119.659 28.5694 118.534 29.3081 116.841 29.3081C115.114 29.3081 113.966 28.5694 113.67 27.149L108.909 27.399C109.364 30.7399 112.205 32.7967 116.83 32.7967C121.352 32.7967 124.591 30.4899 124.602 27.0467C124.591 24.524 122.943 23.0126 119.557 22.3194L116.398 21.6831C114.773 21.3308 114.17 20.774 114.182 19.9331C114.17 18.8876 115.352 18.2058 116.852 18.2058C118.534 18.2058 119.534 19.1263 119.773 20.2513L124.205 19.9785Z" fill="white"/>
</svg>
